<svg xmlns="http://www.w3.org/2000/svg" xmlns:xlink="http://www.w3.org/1999/xlink" id="Layer_1" data-name="Layer 1" viewBox="0 0 344.8 310.38" width="406" height="306" class="illustration styles_illustrationTablet__1DWOa"><defs><linearGradient id="linear-gradient" x1="209.5" y1="316.63" x2="203.59" y2="64.92" gradientTransform="matrix(1, 0, 0, -1, -38.7, 341.8)" gradientUnits="userSpaceOnUse"><stop offset="0.01"/><stop offset="0.08" stop-opacity="0.69"/><stop offset="0.21" stop-opacity="0.32"/><stop offset="1" stop-opacity="0"/></linearGradient><linearGradient id="linear-gradient-2" x1="-2957.44" y1="672.97" x2="-2838.25" y2="667.7" gradientTransform="matrix(-1, 0, 0, 1, -2671.81, -468.99)" xlink:href="#linear-gradient"/><linearGradient id="linear-gradient-3" x1="173.97" y1="180.93" x2="108.65" y2="201.49" gradientTransform="matrix(1, 0, 0, -1, 0, 352)" xlink:href="#linear-gradient"/><linearGradient id="linear-gradient-4" x1="-743.12" y1="171.74" x2="-731.16" y2="171.74" gradientTransform="translate(-546.93 352) rotate(180)" gradientUnits="userSpaceOnUse"><stop offset="0" stop-color="#e5c5d5"/><stop offset="0.42" stop-color="#ead4d1"/><stop offset="1" stop-color="#f0e9cb"/></linearGradient><linearGradient id="linear-gradient-5" x1="486.99" y1="169.46" x2="509.86" y2="102.27" gradientTransform="matrix(1, 0, 0, -1, -281.03, 352)" gradientUnits="userSpaceOnUse"><stop offset="0" stop-opacity="0"/><stop offset="0.99"/></linearGradient><linearGradient id="linear-gradient-6" x1="-902.02" y1="1403.59" x2="-889.1" y2="1403.59" gradientTransform="translate(1112.04 -1243.47)" xlink:href="#linear-gradient-4"/><linearGradient id="linear-gradient-7" x1="-1953.85" y1="118.92" x2="-1888.34" y2="184.43" gradientTransform="translate(-1685.23 352) rotate(180)" xlink:href="#linear-gradient"/><linearGradient id="linear-gradient-8" x1="211.86" y1="148.34" x2="261.87" y2="148.34" gradientTransform="matrix(1, 0, 0, -1, 0, 352)" xlink:href="#linear-gradient"/><linearGradient id="linear-gradient-9" x1="174.2" y1="167.63" x2="183.57" y2="167.63" gradientTransform="matrix(1, 0, 0, -1, 0, 352)" xlink:href="#linear-gradient-4"/><linearGradient id="linear-gradient-10" x1="-1854.55" y1="164.4" x2="-1834.4" y2="105.2" gradientTransform="translate(-1679.61 352) rotate(180)" xlink:href="#linear-gradient-4"/><linearGradient id="linear-gradient-11" x1="164.45" y1="132.49" x2="185.62" y2="108.49" gradientTransform="matrix(1, 0, 0, -1, 0, 352)" xlink:href="#linear-gradient-4"/><linearGradient id="linear-gradient-12" x1="139.63" y1="132.48" x2="175.14" y2="155.99" gradientTransform="matrix(1, 0, 0, -1, 0, 352)" xlink:href="#linear-gradient"/><linearGradient id="linear-gradient-13" x1="-3234.06" y1="1403.6" x2="-3223.35" y2="1403.6" gradientTransform="matrix(-1, 0, 0, 1, -3072.68, -1243.47)" xlink:href="#linear-gradient-4"/><linearGradient id="linear-gradient-14" x1="387.38" y1="130.26" x2="442.92" y2="185.8" gradientTransform="matrix(1, 0, 0, -1, -275.41, 352)" xlink:href="#linear-gradient"/></defs><title>14</title><path d="M376.59,221.26c-2.56,10.08-7,20.15-10.89,29.13-6.48,14.87-14.44,29.64-26.9,40-24.64,20.53-59.94,19.32-91.7,23.76-39.54,5.53-80.48,11.61-119.62-1-28.17-9.11-54-29-64.39-56.76-5.08-13.54-6.31-28.18-7.5-42.6-1.28-15.52-2.11-30.34-6.25-45.22-4.43-15.92-9-32.5-10.33-49-2.34-30,8.74-60.91,30.25-81.9s53.2-31.33,82.8-26.15c22.09,3.87,41.88,15.6,61.37,26.7,13.24,7.55,27.22,15.08,42.45,15.67,20.08.77,39.36-10.69,59.36-8.76,24.74,2.39,42.88,24.3,54.45,46.31A134.7,134.7,0,0,1,379,112.86a95.83,95.83,0,0,1,2.84,46.77c-3,16-2.64,31-3.1,47.4A65.81,65.81,0,0,1,376.59,221.26Z" transform="translate(-38.7 -10.2)" fill="#4753df" opacity="0.18" style="isolation: isolate;"/><ellipse cx="165.98" cy="230.5" rx="105.31" ry="20.47" fill="url(#linear-gradient)"/></svg>